# xmcd CD database file
#
# Track frame offsets:
#	150
#	15514
#	30148
#	46707
#	60124
#	73792
#	87926
#	103016
#	119744
#	132856
#	149549
#	163405
#
# Disc length: 2374 seconds
#
# Revision: 0
# Processed by: cddbd v1.5.2PL0 Copyright (c) Steve Scherf et al.
# Submitted via: CDex 1.51
#
DISCID=9c09440c
DTITLE=Lee Greenwood - PURE
DYEAR=2007
DGENRE=Country
TTITLE0=I Don't Mind The Thorns (If You're The Rose)
TTITLE1=Mornin' Ride
TTITLE2=Somebody's Gonna Love You
TTITLE3=Hearts Aren't Made To Break (They're Made To Love)
TTITLE4=Don't Underestimate My Love For You
TTITLE5=Dixie Road
TTITLE6=Going, Going, Gone
TTITLE7=Fool's Gold
TTITLE8=Touch And Go Crazy
TTITLE9=Ring On Her Finger, Time On Her Hands
TTITLE10=I.O.U.
TTITLE11=God Bless The USA
EXTD=YEAR: 2007
EXTT0=
EXTT1=
EXTT2=
EXTT3=
EXTT4=
EXTT5=
EXTT6=
EXTT7=
EXTT8=
EXTT9=
EXTT10=
EXTT11=
PLAYORDER=
